<?xml version="1.0" standalone="no"?>
<!DOCTYPE svg PUBLIC "-//W3C//DTD SVG 20010904//EN"
 "http://www.w3.org/TR/2001/REC-SVG-20010904/DTD/svg10.dtd">
<svg version="1.0" xmlns="http://www.w3.org/2000/svg"
 width="64.000000pt" height="64.000000pt" viewBox="0 0 64.000000 64.000000"
 preserveAspectRatio="xMidYMid meet">

<g transform="translate(0.000000,64.000000) scale(0.100000,-0.100000)"
fill="#000000" stroke="none">
<path d="M0 320 l0 -320 320 0 320 0 0 320 0 320 -320 0 -320 0 0 -320z m433
293 c-4 -10 -11 -21 -17 -25 -8 -5 -7 -11 1 -19 12 -12 37 -3 28 11 -3 4 -1
19 4 32 l10 23 7 -22 c10 -35 31 -26 25 10 0 4 4 7 10 7 7 0 9 -9 5 -22 -3
-13 -6 -29 -6 -36 0 -9 -5 -10 -19 -3 -14 8 -22 7 -32 -5 -7 -8 -18 -13 -26
-10 -7 3 -13 1 -13 -4 0 -6 5 -10 11 -10 6 0 22 -9 36 -20 25 -19 27 -19 45
-3 10 9 16 24 13 32 -3 9 13 -3 35 -26 22 -23 40 -48 39 -55 0 -8 -5 -6 -12 5
-35 54 -34 54 -57 32 l-20 -21 25 -34 c14 -18 22 -36 19 -39 -4 -3 -9 0 -11 6
-3 7 -12 22 -22 34 -15 19 -20 20 -38 8 -18 -11 -20 -17 -11 -33 8 -17 8 -19
-2 -9 -10 9 -18 8 -35 -5 -21 -15 -21 -19 -7 -40 8 -12 12 -25 9 -28 -3 -3 -8
4 -12 15 -8 26 -21 27 -37 1 -7 -11 -16 -20 -21 -20 -4 0 -5 5 -2 10 6 10 -9
15 -30 10 -5 -1 0 8 13 20 18 17 21 25 11 36 -8 10 -8 14 -1 14 18 0 36 41 22
50 -8 5 -7 9 5 14 12 4 16 14 13 31 -3 14 -2 25 2 25 4 0 10 11 12 25 3 14 1
25 -6 25 -8 0 18 18 41 29 1 1 -1 -7 -4 -16z m117 -3 c0 -11 -2 -20 -4 -20 -2
0 -6 9 -9 20 -3 11 -1 20 4 20 5 0 9 -9 9 -20z m-205 2 c-36 -4 -38 -5 -15
-12 14 -5 -51 -6 -145 -3 -94 3 -172 8 -175 10 -3 2 46 3 108 2 61 -1 114 0
116 2 3 3 38 5 78 5 43 1 57 -1 33 -4z m-162 -39 c-7 -3 -23 -13 -35 -22 l-21
-18 32 -16 c20 -10 29 -12 23 -4 -14 17 -3 33 33 47 56 22 67 21 59 -3 -5 -18
-4 -20 7 -9 7 6 31 12 53 12 48 0 44 -8 -7 -12 -45 -3 -49 -13 -32 -71 7 -25
11 -48 7 -52 -4 -3 0 -10 7 -14 11 -7 11 -14 -2 -40 -9 -19 -11 -31 -5 -31 6
0 -1 -11 -16 -25 -34 -32 -33 -39 4 -20 20 10 30 12 30 4 0 -6 6 -9 13 -6 7 2
13 -4 14 -17 1 -11 4 -32 6 -46 2 -14 5 -31 6 -37 1 -15 37 -17 46 -3 3 6 11
10 18 10 6 0 1 -7 -11 -16 -13 -9 -32 -14 -43 -11 -10 3 -19 2 -19 -2 0 -7
-34 -7 -50 -1 -3 1 -14 2 -25 2 -16 -1 -16 0 -3 4 10 3 23 25 31 52 14 49 7
63 -19 41 -12 -10 -12 -14 -2 -22 10 -6 9 -8 -4 -4 -9 3 -24 -3 -33 -13 -15
-17 -16 -22 -4 -37 13 -17 12 -17 -4 -4 -16 13 -21 12 -39 -7 l-21 -21 36 -21
c21 -12 37 -24 37 -27 0 -3 -17 5 -37 17 -31 18 -40 20 -60 9 -13 -7 -21 -19
-19 -26 7 -18 2 -16 -19 7 -14 15 -15 19 -4 15 10 -4 20 4 29 21 13 23 13 27
-5 40 -10 8 -15 14 -9 14 5 0 1 7 -10 15 -10 7 -15 18 -12 24 7 10 -12 27 -20
18 -12 -11 -14 -60 -3 -73 6 -8 8 -14 4 -14 -4 0 -1 -8 6 -18 13 -15 12 -16
-4 -3 -17 13 -47 72 -47 92 0 5 6 9 14 9 7 0 19 7 26 15 7 8 16 12 21 9 5 -3
6 8 3 24 -3 15 -1 46 5 68 6 21 10 41 9 44 -1 3 7 20 17 37 18 30 18 34 3 49
-17 17 -42 10 -35 -9 2 -7 -3 -17 -12 -24 -17 -13 -39 -18 -28 -6 4 3 2 12 -5
20 -6 8 -7 13 -2 12 23 -4 36 2 31 16 -6 14 7 28 30 31 7 1 25 12 39 23 15 12
30 18 33 15 3 -4 0 -9 -6 -11z m-107 -19 c-3 -9 -6 -23 -6 -31 0 -12 -3 -13
-14 -4 -17 14 -31 -2 -22 -25 3 -9 1 -12 -4 -9 -16 10 -11 34 10 47 11 7 20
18 20 25 0 7 5 13 11 13 6 0 8 -7 5 -16z m-19 -134 c-7 -17 -13 -26 -15 -21
-3 10 15 51 22 51 3 0 -1 -14 -7 -30z m556 -15 c-7 -21 -13 -19 -13 6 0 11 4
18 10 14 5 -3 7 -12 3 -20z m-563 -75 c0 -21 -4 -41 -9 -44 -5 -3 -9 17 -9 44
-1 29 3 48 9 45 5 -4 9 -24 9 -45z m567 -84 c-6 -12 -5 -22 2 -29 14 -14 14
-27 1 -27 -5 0 -10 8 -10 18 -1 15 -2 14 -11 -3 -30 -55 -64 -96 -100 -119
-21 -15 -39 -23 -39 -18 0 4 14 16 30 25 31 19 42 44 14 33 -9 -3 -12 -2 -8 5
3 6 15 8 25 6 25 -7 60 40 39 53 -8 5 -10 17 -6 35 8 32 -10 51 -31 33 -20
-16 -16 -58 5 -59 10 0 12 -3 5 -6 -7 -2 -13 -11 -13 -19 0 -9 5 -12 10 -9 6
3 10 4 10 0 0 -6 -44 -25 -72 -30 -9 -2 -30 -11 -47 -19 -16 -9 -34 -16 -38
-16 -4 1 12 12 37 24 25 13 50 22 55 19 6 -2 0 4 -12 15 -13 11 -23 27 -23 36
0 9 -7 16 -15 16 -8 0 -15 4 -15 9 0 5 -3 16 -6 25 -9 23 12 20 37 -6 12 -13
19 -18 15 -11 -3 6 -2 14 4 18 5 3 10 0 10 -8 0 -8 9 -25 20 -38 20 -23 21
-23 8 -1 -11 19 -10 27 2 50 9 15 24 27 35 27 23 0 35 13 34 35 0 10 -3 8 -9
-5 -6 -15 -9 -9 -9 25 1 25 3 38 6 30 3 -8 12 -20 20 -27 13 -10 13 -19 0 -70
-17 -64 -15 -75 10 -51 11 11 18 42 22 95 l5 78 7 -60 c3 -33 2 -68 -4 -79z
m-247 64 c0 -5 -2 -10 -4 -10 -3 0 -8 5 -11 10 -3 6 -1 10 4 10 6 0 11 -4 11
-10z m112 -42 c-8 -8 -9 -4 -5 13 4 13 8 18 11 10 2 -7 -1 -18 -6 -23z m54
-44 c-4 -9 -9 -15 -11 -12 -3 3 -3 13 1 22 4 9 9 15 11 12 3 -3 3 -13 -1 -22z
m-261 -114 c3 -5 1 -10 -4 -10 -6 0 -11 5 -11 10 0 6 2 10 4 10 3 0 8 -4 11
-10z m90 -10 c-3 -5 -19 -8 -36 -6 -46 5 -47 16 0 16 25 0 40 -4 36 -10z
m-175 -32 c0 -12 -6 -9 -26 13 -19 22 -19 22 4 8 12 -8 22 -17 22 -21z m35 -8
c3 -5 16 -11 28 -11 17 -1 18 -2 5 -6 -10 -2 -28 3 -40 11 -12 9 -17 16 -11
16 7 0 15 -4 18 -10z m211 -5 c-11 -8 -27 -15 -35 -15 -9 1 -2 7 14 15 39 18
44 18 21 0z m-62 -14 c3 -5 -17 -9 -44 -9 -27 0 -47 4 -44 9 3 5 23 9 44 9 21
0 41 -4 44 -9z"/>
<path d="M400 520 c0 -6 11 -16 25 -22 14 -6 25 -16 25 -22 0 -6 5 -5 13 3 10
10 7 16 -12 32 -25 21 -51 25 -51 9z"/>
<path d="M278 603 c7 -3 16 -2 19 1 4 3 -2 6 -13 5 -11 0 -14 -3 -6 -6z"/>
<path d="M140 451 c-8 -16 -5 -23 20 -41 17 -12 30 -19 30 -15 0 3 9 1 21 -6
30 -16 44 3 19 26 -20 18 -21 18 -36 -1 -14 -18 -15 -18 -4 4 20 42 -28 73
-50 33z"/>
<path d="M258 403 c9 -16 9 -22 0 -25 -9 -3 -9 -6 0 -12 7 -4 12 -2 12 5 0 8
5 7 17 -2 15 -13 15 -12 5 7 -6 11 -19 27 -28 35 -16 13 -16 12 -6 -8z"/>
<path d="M203 302 c-16 -2 -23 -10 -23 -25 0 -20 -1 -20 -14 -2 -18 25 -45 13
-42 -19 2 -14 11 -37 21 -52 l17 -26 21 20 c18 18 19 23 6 39 -13 17 -13 17 4
4 14 -11 20 -12 30 -2 9 10 8 15 -6 26 -18 13 -17 14 6 17 18 2 22 6 13 13 -6
6 -21 9 -33 7z"/>
</g>
</svg>
