<?xml version="1.0" standalone="no"?>
<!DOCTYPE svg PUBLIC "-//W3C//DTD SVG 20010904//EN"
 "http://www.w3.org/TR/2001/REC-SVG-20010904/DTD/svg10.dtd">
<svg version="1.0" xmlns="http://www.w3.org/2000/svg"
 width="64.000000pt" height="64.000000pt" viewBox="0 0 64.000000 64.000000"
 preserveAspectRatio="xMidYMid meet">

<g transform="translate(0.000000,64.000000) scale(0.100000,-0.100000)"
fill="#000000" stroke="none">
<path d="M0 320 l0 -320 320 0 320 0 0 320 0 320 -320 0 -320 0 0 -320z m336
197 c12 -7 40 -35 62 -64 32 -39 46 -50 62 -46 11 3 20 12 20 19 0 20 59 18
67 -1 9 -26 -23 -51 -69 -53 -61 -2 -71 3 -108 54 -17 25 -44 50 -58 55 -54
20 -112 -33 -93 -84 13 -32 29 -44 86 -58 67 -16 92 -34 105 -74 15 -44 4 -80
-32 -110 -58 -49 -120 -30 -183 58 l-20 28 -52 -36 c-47 -33 -73 -39 -73 -15
0 16 98 80 123 80 18 0 37 -14 67 -50 47 -56 84 -66 120 -30 46 46 15 92 -80
120 -80 24 -100 45 -100 106 0 84 87 140 156 101z"/>
</g>
</svg>
