<?xml version="1.0" standalone="no"?>
<!DOCTYPE svg PUBLIC "-//W3C//DTD SVG 20010904//EN"
 "http://www.w3.org/TR/2001/REC-SVG-20010904/DTD/svg10.dtd">
<svg version="1.0" xmlns="http://www.w3.org/2000/svg"
 width="128.000000pt" height="128.000000pt" viewBox="0 0 128.000000 128.000000"
 preserveAspectRatio="xMidYMid meet">

<g transform="translate(0.000000,128.000000) scale(0.100000,-0.100000)"
fill="#000000" stroke="none">
<path d="M573 1000 c-39 -10 -85 -26 -101 -34 -31 -16 -72 -65 -72 -85 0 -6
-4 -11 -8 -11 -4 0 -8 -8 -9 -17 0 -10 -4 -41 -8 -69 -6 -41 -3 -58 13 -91 23
-45 120 -124 177 -144 l35 -13 0 -98 c0 -54 -3 -98 -7 -98 -3 0 -60 16 -126
35 -66 20 -122 34 -124 31 -9 -9 48 -74 89 -101 84 -56 231 -80 322 -53 49 15
112 76 124 119 6 27 16 35 50 47 l42 14 2 211 c3 188 5 209 17 185 7 -15 21
-30 30 -34 37 -15 131 -30 144 -23 9 5 22 1 35 -12 12 -11 22 -15 22 -9 0 6
-7 13 -16 17 -10 4 -14 13 -10 27 6 26 -43 117 -76 140 -12 9 -41 16 -63 16
-22 0 -75 11 -117 25 -42 13 -114 27 -160 30 -46 3 -94 8 -108 10 -14 2 -57
-5 -97 -15z m249 -11 c39 -6 95 -19 126 -30 30 -10 74 -19 96 -19 23 0 52 -7
64 -16 33 -23 74 -92 70 -117 -3 -20 -8 -22 -58 -20 -79 4 -101 17 -130 75
-31 63 -52 73 -195 88 -188 21 -285 -3 -319 -78 -17 -37 -17 -42 -2 -71 22
-42 47 -56 142 -80 106 -27 146 -44 189 -82 54 -48 68 -83 62 -149 -10 -110
-65 -167 -182 -189 -37 -6 -70 -10 -72 -7 -12 12 8 36 29 36 43 0 86 36 98 81
23 84 -11 156 -92 193 -29 13 -79 32 -111 41 -138 39 -180 144 -107 263 46 75
211 109 392 81z m101 -75 c15 -9 -11 -20 -143 -59 -138 -40 -169 -46 -203 -39
-47 11 -54 23 -30 53 35 42 115 62 243 58 63 -1 123 -7 133 -13z m27 -249 c0
-225 0 -226 -22 -234 -22 -8 -23 -5 -29 48 -6 63 -20 101 -49 139 -13 16 -20
40 -20 68 0 24 -3 44 -8 44 -4 0 -6 -18 -4 -40 l4 -41 -37 25 c-20 14 -45 28
-56 31 -22 7 -26 45 -4 45 8 0 15 7 15 15 0 25 -20 17 -32 -12 -7 -16 -13 -29
-14 -31 -1 -2 -18 0 -38 3 -32 7 -36 10 -36 39 l0 32 148 46 c81 25 155 46
165 47 16 1 17 -16 17 -224z m-374 139 c18 -5 24 -13 24 -35 0 -27 -2 -29 -27
-23 -32 7 -53 30 -53 57 0 13 5 17 16 13 9 -3 27 -9 40 -12z m115 -324 l6 -55
1 49 c2 42 4 47 17 36 35 -29 8 -142 -37 -155 -63 -18 -58 -25 -58 85 l0 101
33 -3 c31 -3 32 -5 38 -58z"/>
<path d="M1106 893 c-11 -11 -6 -23 9 -23 8 0 15 4 15 9 0 13 -16 22 -24 14z"/>
<path d="M1062 821 c2 -7 7 -12 11 -12 12 1 9 15 -3 20 -7 2 -11 -2 -8 -8z"/>
<path d="M878 653 c5 -21 7 -23 10 -9 2 10 0 22 -6 28 -6 6 -7 0 -4 -19z"/>
<path d="M888 595 c2 -14 8 -25 12 -25 4 0 5 11 2 25 -2 14 -8 25 -12 25 -4 0
-5 -11 -2 -25z"/>
<path d="M660 409 c0 -18 2 -19 15 -9 15 12 12 30 -6 30 -5 0 -9 -10 -9 -21z"/>
<path d="M295 890 c11 -5 27 -9 35 -9 9 0 8 4 -5 9 -11 5 -27 9 -35 9 -9 0 -8
-4 5 -9z"/>
<path d="M180 692 c62 -16 65 -18 68 -50 3 -29 1 -33 -15 -28 -60 18 -73 18
-73 2 0 -9 -6 -16 -14 -16 -8 0 -16 -7 -20 -15 -3 -9 0 -15 10 -15 8 0 39 -9
69 -19 l55 -19 0 78 0 78 -50 11 c-80 17 -102 12 -30 -7z"/>
</g>
</svg>
